<?xml version="1.0" encoding="utf-8"?>
<!-- Generator: Adobe Illustrator 23.0.3, SVG Export Plug-In . SVG Version: 6.00 Build 0)  -->
<svg version="1.1"
	 id="svg915" xmlns:cc="http://creativecommons.org/ns#" xmlns:dc="http://purl.org/dc/elements/1.1/" xmlns:inkscape="http://www.inkscape.org/namespaces/inkscape" xmlns:osb="http://www.openswatchbook.org/uri/2009/osb" xmlns:rdf="http://www.w3.org/1999/02/22-rdf-syntax-ns#" xmlns:sodipodi="http://sodipodi.sourceforge.net/DTD/sodipodi-0.dtd" xmlns:svg="http://www.w3.org/2000/svg"
	 xmlns="http://www.w3.org/2000/svg" xmlns:xlink="http://www.w3.org/1999/xlink" x="0px" y="0px" viewBox="0 0 448 448"
	 style="enable-background:new 0 0 448 448;" xml:space="preserve">
<style type="text/css">
	.st0{fill:none;}
	.st1{fill:#843500;}
	.st2{fill:#552200;}
	.st3{fill:none;stroke:#C70101;stroke-width:0.2646;stroke-opacity:0;}
	.st4{fill:url(#SVGID_3_);stroke:#9A562B;stroke-width:16;}
	.st5{fill:url(#SVGID_4_);stroke:#9A562B;stroke-width:16;}
</style>
<pattern  x="96" y="352" width="32" height="32" patternUnits="userSpaceOnUse" id="SVGID_1_" viewBox="0 -32 32 32" style="overflow:visible;">
	<g>
		<rect y="-32" class="st0" width="32" height="32"/>
		<g>
			<rect y="-32" class="st0" width="32" height="32"/>
			<g>
				<rect y="-32" class="st0" width="32" height="32"/>
				<rect id="rect5013_1_" y="-16" class="st1" width="16" height="16"/>
				<rect id="rect5035_1_" x="16" y="-16" class="st2" width="16" height="16"/>
				<rect id="rect5037_1_" y="-32" class="st2" width="16" height="16"/>
				<rect id="rect5039_1_" x="16" y="-32" class="st1" width="16" height="16"/>
			</g>
		</g>
	</g>
</pattern>
<pattern  x="96" y="352" width="32" height="32" patternUnits="userSpaceOnUse" id="SVGID_2_" viewBox="0 -32 32 32" style="overflow:visible;">
	<g>
		<rect y="-32" class="st0" width="32" height="32"/>
		<g>
			<rect y="-32" class="st0" width="32" height="32"/>
			<g>
				<rect y="-32" class="st0" width="32" height="32"/>
				<rect id="rect5013_3_" y="-16" class="st1" width="16" height="16"/>
				<rect id="rect5035_3_" x="16" y="-16" class="st2" width="16" height="16"/>
				<rect id="rect5037_3_" y="-32" class="st2" width="16" height="16"/>
				<rect id="rect5039_3_" x="16" y="-32" class="st1" width="16" height="16"/>
			</g>
		</g>
	</g>
</pattern>
<defs>
	
	
		<inkscape:path-effect  apply_no_weight="true" apply_with_weight="true" effect="bspline" helper_size="0" id="path-effect3328" is_visible="true" only_selected="false" steps="2" weight="33.333333">
		</inkscape:path-effect>
	
		<inkscape:path-effect  apply_no_weight="true" apply_with_weight="true" effect="bspline" helper_size="0" id="path-effect3322" is_visible="true" only_selected="false" steps="2" weight="33.333333">
		</inkscape:path-effect>
</defs>
<sodipodi:namedview  bordercolor="#666666" borderopacity="1.0" gridtolerance="40" guidetolerance="11" id="base" inkscape:current-layer="layer1" inkscape:cx="-6.9785992" inkscape:cy="194.34308" inkscape:document-units="px" inkscape:pagecheckerboard="true" inkscape:pageopacity="0.0" inkscape:pageshadow="2" inkscape:window-height="855" inkscape:window-maximized="0" inkscape:window-width="1440" inkscape:window-x="-2" inkscape:window-y="0" inkscape:zoom="0.99999999" pagecolor="#ffffff" showgrid="true" units="px">
	<inkscape:grid  id="grid1466" spacingx="16.933333" spacingy="16.933333" type="xygrid"></inkscape:grid>
</sodipodi:namedview>
<g id="layer2" transform="translate(0,263.13333)" inkscape:groupmode="layer" inkscape:label="grid">
</g>
<path id="path3334" inkscape:connector-curvature="0" class="st3" d="M224,174.3v99.5"/>
<g>
	<pattern  id="SVGID_3_" xlink:href="#SVGID_1_" patternTransform="matrix(1 0 0 1 0 16704)">
	</pattern>
	<path class="st4" d="M425.6,137.7c-9.9-26.8-24.6-51.3-44.2-70.9c-78.7-78.4-236.3-78.4-315,0c-19.7,19.6-34.3,44.1-44,70.9H425.6z
		"/>
	<pattern  id="SVGID_4_" xlink:href="#SVGID_2_" patternTransform="matrix(1 0 0 1 0 16704)">
	</pattern>
	<path class="st5" d="M22.2,310.3c9.7,26.8,24.6,51.3,44.2,70.9c78.7,78.4,237.8,78.4,315.7,0c19.5-19.6,33.9-43.9,43.7-70.9H22.2z"
		/>
</g>
</svg>
