<?xml version="1.0" encoding="utf-8"?>
<!-- Generator: Adobe Illustrator 23.0.3, SVG Export Plug-In . SVG Version: 6.00 Build 0)  -->
<svg version="1.1" id="Layer_1" xmlns="http://www.w3.org/2000/svg" xmlns:xlink="http://www.w3.org/1999/xlink" x="0px" y="0px"
	 viewBox="0 0 432 90.9" style="enable-background:new 0 0 432 90.9;" xml:space="preserve">
<style type="text/css">
	.st0{fill:none;stroke:#006837;stroke-width:6;stroke-miterlimit:10;}
	.st1{fill:#006837;}
	.st2{fill:none;}
	.st3{fill:#BFBFBF;}
</style>
<path class="st0" d="M97.8,25.4"/>
<path class="st0" d="M97.1-10.8"/>
<path class="st0" d="M-2.6,3.7"/>
<path class="st0" d="M-4-68.7"/>
<path class="st1" d="M99.5,77.7c-1,0-1.9,0-2.9,0c-14.1-0.5-45.9-11.6-68.9-20.9c-6.2-2.5-9.2-9.7-6.7-15.9
	c1.9-4.6,6.3-7.6,11.3-7.6c1.6,0,3.1,0.3,4.6,0.9c19,7.7,50.3,18.8,60.5,19.1c0.7,0,1.4,0,2.2,0c22,0,57.1-11,88.1-20.7l0.3-0.1
	c28.5-8.9,55.4-17.4,75.7-19.3c3.5-0.3,7.6-0.5,12.1-0.5c37.4,0,100.8,11,157.8,21.8c6.8,1.3,13.2,2.5,15.8,2.9v0.1h0v-0.1
	c0,0,0,0,0,0v0.1h0v-0.1c0.2,0,0.7,0.1,0.7,0.1l0.2,0c6.3,0.5,11.3,5.8,11.3,12.2c0,6.7-5.5,12.2-12.2,12.2c-2.1,0-4.2-0.4-20.4-3.4
	C398.2,52.7,316,37.1,276,37.1c-3.7,0-7.1,0.1-10,0.4c-17.7,1.7-44.7,10.1-70.7,18.2C161,66.6,125.4,77.7,99.5,77.7L99.5,77.7z"/>
<g>
	<path class="st2" d="M99.5,82.6c-1,0-2,0-3-0.1c-19-0.7-62.1-17.8-70.5-21.3C17.2,57.7,13,47.7,16.6,39S30.1,26,38.9,29.6
		c21.6,8.8,50.3,18.5,58.8,18.8c21.1,0.7,57.1-10.6,88.9-20.5c28.7-9,55.9-17.5,76.7-19.5c34.4-3.2,105.9,9,171.3,21.4
		c7,1.3,14.2,2.7,16.2,3c8.8,0.7,15.8,8,15.8,17c0,9.4-7.7,17.1-17.1,17.1c-2.5,0-4.5-0.3-21.3-3.5c-34.9-6.6-127.5-24.1-161.8-21
		c-17.2,1.6-43.9,10-69.7,18C162.1,71.3,126.2,82.6,99.5,82.6z M449.6,32.7C449.6,32.7,449.6,32.7,449.6,32.7
		C449.6,32.7,449.6,32.7,449.6,32.7z M449.5,32.7C449.5,32.7,449.6,32.7,449.5,32.7C449.6,32.7,449.5,32.7,449.5,32.7z"/>
	<g>
		<g>
			<path class="st3" d="M99.5,76.7c-0.9,1.9-1.9,3.9-2.9,5.8c-1,1.9-2.2,3.7-3.5,5.6c-0.9-2-1.6-4.1-2.3-6.2
				c-0.7-2.1-1.3-4.1-1.8-6.2c0.9,0.2,1.8,0.3,2.7,0.4c0.9,0.1,1.8,0.3,2.6,0.3l2.5,0.2L99.5,76.7z"/>
		</g>
		<g>
			<path class="st3" d="M88.9,75.7c-2.5,3.5-5.3,7-8.1,10.3c-1.1-4.3-2-8.5-2.8-12.8C81.6,74.2,85.3,75,88.9,75.7z"/>
		</g>
		<g>
			<path class="st3" d="M78,73.1c-2.8,3.3-5.8,6.5-8.8,9.7c-0.8-4.3-1.5-8.6-2.2-12.9c1.8,0.6,3.7,1.1,5.5,1.7
				C74.3,72.1,76.1,72.7,78,73.1z"/>
		</g>
		<g>
			<path class="st3" d="M66.9,69.9c-3,3.2-6.1,6.3-9.2,9.3c-0.7-4.3-1.2-8.7-1.8-13C59.6,67.5,63.3,68.8,66.9,69.9z"/>
		</g>
		<g>
			<path class="st3" d="M56,66.3c-3.1,3.1-6.2,6.1-9.4,9.1c-0.5-4.3-1-8.7-1.5-13C48.7,63.7,52.3,65,56,66.3z"/>
		</g>
		<g>
			<path class="st3" d="M45,62.3c-3.2,3-6.4,6-9.6,8.9c-0.4-4.4-0.9-8.7-1.2-13C37.8,59.6,41.4,61,45,62.3z"/>
		</g>
		<g>
			<path class="st3" d="M34.2,58.2c-3.2,2.9-6.5,5.8-9.8,8.7c-0.1-0.6-0.1-1.1-0.2-1.6c-0.1-0.6-0.2-1.2-0.2-1.7
				c-0.1-1.1-0.1-2.2-0.1-3.3c0.1-2.2,0.6-4.3,1.3-6.2c0.5,0.4,1,0.8,1.6,1.1c0.3,0.2,0.6,0.3,0.9,0.4l0.4,0.2
				c0.2,0.1,0.4,0.2,0.6,0.3L34.2,58.2z"/>
		</g>
		<g>
			<path class="st3" d="M25.3,54.1c-3.5,2.2-7.9,3.3-12.6,3c2-4.2,5.1-7.5,8.7-9.6C21.9,50.1,23.3,52.4,25.3,54.1z"/>
		</g>
		<g>
			<path class="st3" d="M21.4,47.5c-4.1-0.5-8.2-2.4-11.7-5.6c4.3-2,8.8-2.6,12.8-1.9C21.4,42.4,20.9,45,21.4,47.5z"/>
		</g>
		<g>
			<path class="st3" d="M22.6,40.1c-2.8-3-4.8-7-5.5-11.7c4.6,1.2,8.4,3.6,11.1,6.7C25.8,36,23.8,37.8,22.6,40.1z"/>
		</g>
		<g>
			<path class="st3" d="M28.2,35c-0.3-4.1,0.8-8.5,3.2-12.5c2.8,3.8,4.3,8.1,4.3,12.2C33.3,34,30.6,34,28.2,35z"/>
		</g>
		<g>
			<path class="st3" d="M35.7,34.7c0.6-0.8,1.3-1.6,2-2.4l2.5-2.2l4.9-4.4c0.4,4.3,0.8,8.7,1.2,13l-5.5-2.1L38,35.5L36.6,35
				C36.3,34.9,36,34.8,35.7,34.7z"/>
		</g>
		<g>
			<path class="st3" d="M46.3,38.8c3.2-2.9,6.4-5.9,9.6-8.9c0.4,4.3,0.9,8.7,1.5,13C53.7,41.6,50,40.2,46.3,38.8z"/>
		</g>
		<g>
			<path class="st3" d="M57.4,42.9c3.2-3,6.3-6,9.4-9.1c0.5,4.3,1.1,8.7,1.8,13C64.9,45.6,61.1,44.3,57.4,42.9z"/>
		</g>
		<g>
			<path class="st3" d="M68.6,46.8c3.1-3.1,6.2-6.2,9.2-9.3c0.7,4.3,1.4,8.6,2.2,12.9C76.2,49.3,72.4,48.1,68.6,46.8z"/>
		</g>
		<g>
			<path class="st3" d="M80,50.4c3-3.2,6-6.4,8.8-9.7c0.8,4.3,1.8,8.5,3.1,12.8C87.7,52.6,83.9,51.5,80,50.4z"/>
		</g>
		<g>
			<path class="st3" d="M91.9,53.5c1.4-1.7,2.8-3.5,4-5.3c1.2-1.8,2-3.7,3-5.7c0.9,2,1.8,3.9,2.8,5.9c1,1.9,2.1,3.8,3.3,5.7
				l-3.1,0.2l-3.2,0l-0.8,0c-0.3,0-0.5,0-0.9,0L95.2,54C94.1,53.8,92.9,53.7,91.9,53.5z"/>
		</g>
		<g>
			<path class="st3" d="M105.1,54c0.5-1,0.9-2,1.3-3c0.4-1,0.8-2,1.2-3.1c0.8-2,1.5-4.1,2.2-6.1c2.3,3.6,4.8,7.2,7.5,10.8
				c-2,0.3-4,0.6-6,0.9l-3.1,0.3l-1.5,0.2L105.1,54z"/>
		</g>
		<g>
			<path class="st3" d="M117.3,52.6c1.3-4.2,2.6-8.4,3.7-12.6c2.6,3.4,5.3,6.9,8.1,10.3C125.2,51.1,121.3,51.9,117.3,52.6z"/>
		</g>
		<g>
			<path class="st3" d="M129.2,50.3c1.1-4.3,2.1-8.5,3.1-12.7c2.8,3.3,5.6,6.7,8.5,10C136.9,48.5,133.1,49.4,129.2,50.3z"/>
		</g>
		<g>
			<path class="st3" d="M140.8,47.5c0.9-4.3,1.8-8.5,2.7-12.8c2.9,3.3,5.8,6.5,8.8,9.7C148.4,45.4,144.6,46.5,140.8,47.5z"/>
		</g>
		<g>
			<path class="st3" d="M152.2,44.4c0.8-4.3,1.6-8.6,2.4-12.9l8.9,9.6C159.8,42.2,156,43.3,152.2,44.4z"/>
		</g>
		<g>
			<polygon class="st3" points="163.6,41.1 165.8,28.1 174.8,37.6 			"/>
		</g>
		<g>
			<polygon class="st3" points="174.9,37.6 177,24.7 186.1,34.1 			"/>
		</g>
		<g>
			<polygon class="st3" points="186.1,34.1 188.2,21.2 197.3,30.6 			"/>
		</g>
		<g>
			<polygon class="st3" points="197.3,30.6 199.4,17.7 208.4,27.2 			"/>
		</g>
		<g>
			<path class="st3" d="M208.5,27.2l2.2-12.9c3,3.2,6,6.4,8.9,9.6C215.9,24.9,212.2,26,208.5,27.2z"/>
		</g>
		<g>
			<path class="st3" d="M219.6,23.9c0.8-4.3,1.6-8.6,2.4-12.9c3,3.2,5.9,6.5,8.7,9.8C227.1,21.7,223.3,22.8,219.6,23.9z"/>
		</g>
		<g>
			<path class="st3" d="M230.8,20.8c0.9-4.3,1.8-8.6,2.8-12.8c2.9,3.3,5.7,6.7,8.4,10C238.3,18.8,234.5,19.8,230.8,20.8z"/>
		</g>
		<g>
			<path class="st3" d="M242,18c1-4.3,2.1-8.4,3.2-12.7c2.8,3.5,5.4,6.9,7.9,10.4C249.5,16.3,245.7,17.1,242,18z"/>
		</g>
		<g>
			<path class="st3" d="M253.2,15.7c0.6-2.1,1.2-4.2,1.9-6.3c0.7-2.1,1.4-4.1,2.1-6.2c1.3,1.8,2.5,3.6,3.7,5.4
				c1.2,1.8,2.3,3.7,3.4,5.5C260.6,14.5,256.9,15,253.2,15.7z"/>
		</g>
		<g>
			<path class="st3" d="M264.3,14.2c1.5-4,3.2-8,5.1-12.1c2.2,3.8,4.2,7.8,6.1,11.6c-1.9,0-3.8,0-5.7,0.1L264.3,14.2z"/>
		</g>
		<g>
			<path class="st3" d="M275.6,13.8c1.9-4,3.9-7.8,6-11.6c1.9,4,3.7,7.9,5.4,11.9c-1.9-0.1-3.8-0.1-5.7-0.2
				C279.4,13.8,277.4,13.7,275.6,13.8z"/>
		</g>
		<g>
			<path class="st3" d="M287,14c2.1-3.8,4.3-7.6,6.5-11.4c1.7,4,3.4,8.1,5,12.1C294.7,14.4,290.8,14.3,287,14z"/>
		</g>
		<g>
			<path class="st3" d="M298.5,14.8c2.2-3.7,4.5-7.5,6.8-11.2c1.6,4.1,3.2,8.2,4.7,12.3l-5.8-0.6L298.5,14.8z"/>
		</g>
		<g>
			<path class="st3" d="M310.1,15.8c2.3-3.7,4.7-7.4,7.1-11c1.5,4.1,3,8.2,4.5,12.3C317.8,16.7,313.9,16.2,310.1,15.8z"/>
		</g>
		<g>
			<path class="st3" d="M321.6,17.1c2.4-3.6,4.8-7.3,7.3-10.9l4.3,12.4C329.3,18.1,325.5,17.6,321.6,17.1z"/>
		</g>
		<g>
			<path class="st3" d="M333.2,18.6c2.4-3.6,4.9-7.2,7.4-10.8l4.1,12.4C340.9,19.7,337,19.1,333.2,18.6z"/>
		</g>
		<g>
			<path class="st3" d="M344.8,20.2c2.5-3.6,5-7.2,7.5-10.7l4,12.5C352.4,21.4,348.6,20.8,344.8,20.2z"/>
		</g>
		<g>
			<path class="st3" d="M356.3,22l7.6-10.7l3.9,12.5C364,23.2,360.2,22.6,356.3,22z"/>
		</g>
		<g>
			<polygon class="st3" points="367.9,23.8 375.5,13.2 379.4,25.7 			"/>
		</g>
		<g>
			<polygon class="st3" points="379.4,25.7 387.1,15.2 390.9,27.7 			"/>
		</g>
		<g>
			<polygon class="st3" points="390.9,27.7 398.7,17.2 402.4,29.8 			"/>
		</g>
		<g>
			<polygon class="st3" points="402.5,29.8 410.3,19.3 414,31.9 			"/>
		</g>
		<g>
			<polygon class="st3" points="414,31.9 421.9,21.4 425.5,34 			"/>
		</g>
		<g>
			<path class="st3" d="M425.5,34l7.9-10.4c1.2,4.2,2.4,8.4,3.7,12.6L425.5,34z"/>
		</g>
		<g>
			<path class="st3" d="M437.1,36.2c2.6-3.5,5.2-7,7.6-10.5c1.3,4.2,2.7,8.4,4.3,12.7L437.1,36.2z"/>
		</g>
		<g>
			<path class="st3" d="M449,38.4c0.6-0.9,1.2-1.7,1.8-2.7c0.5-0.9,1.2-1.8,1.8-2.7c0.6-0.9,1.4-1.7,2.2-2.5
				c0.8-0.8,1.7-1.5,2.6-2.2c1.1,4.6,0.8,9.1-0.7,12.9c-1-0.8-2.1-1.5-3.3-1.9l-0.9-0.3c-0.3-0.1-0.6-0.1-0.9-0.2
				c-0.4-0.1-0.8-0.1-1.1-0.1c-0.2,0-0.4-0.1-0.7-0.1L449,38.4z"/>
		</g>
		<g>
			<path class="st3" d="M456.7,41.2c3.5-2.2,7.9-3.3,12.6-3.1c-2,4.3-5.1,7.6-8.7,9.6C460.1,45.2,458.7,42.8,456.7,41.2z"/>
		</g>
		<g>
			<path class="st3" d="M460.6,47.7c4.1,0.5,8.2,2.4,11.6,5.6c-4.3,2-8.7,2.6-12.8,1.9C460.6,52.9,461,50.2,460.6,47.7z"/>
		</g>
		<g>
			<path class="st3" d="M459.4,55.1c2.8,3,4.8,7.1,5.5,11.7c-4.6-1.1-8.4-3.5-11.1-6.7C456.2,59.2,458.2,57.4,459.4,55.1z"/>
		</g>
		<g>
			<path class="st3" d="M453.8,60.2c0.3,4.1-0.8,8.5-3.2,12.5c-0.7-0.9-1.3-1.9-1.8-2.9c-0.5-1-1-2-1.4-3c-0.8-2-1.3-4.1-1.9-6.2
				c0.9,0.2,1.8,0.3,2.6,0.4c0.4,0,0.7,0.1,1,0.1c0.2,0,0.4,0,0.5,0l0.5,0C451.3,61,452.6,60.7,453.8,60.2z"/>
		</g>
		<g>
			<path class="st3" d="M445.4,60.6c-2.5,3.5-5.2,7-7.8,10.5L434,58.5C437.9,59.2,441.7,60,445.4,60.6z"/>
		</g>
		<g>
			<polygon class="st3" points="434,58.5 426.1,68.9 422.5,56.3 			"/>
		</g>
		<g>
			<polygon class="st3" points="422.5,56.3 414.6,66.8 410.9,54.2 			"/>
		</g>
		<g>
			<polygon class="st3" points="410.9,54.2 403,64.6 399.4,52 			"/>
		</g>
		<g>
			<polygon class="st3" points="399.4,52 391.5,62.5 387.8,50 			"/>
		</g>
		<g>
			<polygon class="st3" points="387.8,50 380,60.5 376.2,48 			"/>
		</g>
		<g>
			<polygon class="st3" points="376.2,48 368.5,58.6 364.6,46 			"/>
		</g>
		<g>
			<path class="st3" d="M364.6,46l-7.6,10.6l-4-12.5C356.8,44.8,360.7,45.4,364.6,46z"/>
		</g>
		<g>
			<path class="st3" d="M352.9,44.2l-7.6,10.7l-4.1-12.4C345.2,43,349.1,43.6,352.9,44.2z"/>
		</g>
		<g>
			<path class="st3" d="M341.3,42.4l-7.5,10.8l-4.2-12.4C333.5,41.3,337.4,41.9,341.3,42.4z"/>
		</g>
		<g>
			<path class="st3" d="M329.6,40.8c-2.5,3.6-4.9,7.2-7.3,10.8c-1.4-4.1-2.9-8.2-4.4-12.3C321.8,39.8,325.7,40.3,329.6,40.8z"/>
		</g>
		<g>
			<path class="st3" d="M317.9,39.3c-2.4,3.7-4.8,7.3-7.2,11c-1.5-4.1-3-8.2-4.6-12.3C310,38.4,314,38.8,317.9,39.3z"/>
		</g>
		<g>
			<path class="st3" d="M306.1,38c-2.4,3.7-4.7,7.3-6.9,11.1c-1.6-4-3.2-8.1-4.9-12.2C298.2,37.3,302.2,37.6,306.1,38z"/>
		</g>
		<g>
			<path class="st3" d="M294.2,37l-3.4,5.6c-1.1,1.9-2.2,3.8-3.2,5.7c-1.7-4-3.5-8-5.3-12l6,0.3l3,0.2L294.2,37z"/>
		</g>
		<g>
			<path class="st3" d="M282.3,36.3c-2.1,3.9-4.2,7.8-6,11.7c-0.9-2-1.9-3.9-2.9-5.9c-1-1.9-2.1-3.8-3.2-5.7l3.1-0.2c1,0,2,0,3,0
				L282.3,36.3z"/>
		</g>
		<g>
			<path class="st3" d="M270.1,36.4c-1.9,4-3.5,8-4.9,12.1c-1.1-1.9-2.3-3.7-3.6-5.4c-1.2-1.8-2.6-3.6-3.9-5.3
				C261.7,37,265.9,36.5,270.1,36.4z"/>
		</g>
		<g>
			<path class="st3" d="M257.7,37.7c-0.7,2.1-1.3,4.2-1.9,6.3c-0.6,2.1-1.2,4.2-1.7,6.3c-2.6-3.4-5.4-6.8-8.3-10.2
				C249.8,39.2,253.7,38.4,257.7,37.7z"/>
		</g>
		<g>
			<path class="st3" d="M245.9,40.1c-1,4.3-2,8.5-2.9,12.8c-2.8-3.3-5.7-6.6-8.7-9.8C238.1,42,242,41.1,245.9,40.1z"/>
		</g>
		<g>
			<path class="st3" d="M234.3,43.1c-0.9,4.3-1.7,8.6-2.5,12.9c-2.9-3.2-5.9-6.4-8.9-9.6C226.7,45.2,230.5,44.1,234.3,43.1z"/>
		</g>
		<g>
			<path class="st3" d="M222.9,46.3c-0.8,4.3-1.5,8.6-2.3,12.9l-9-9.5C215.3,48.6,219.1,47.4,222.9,46.3z"/>
		</g>
		<g>
			<polygon class="st3" points="211.6,49.7 209.4,62.6 200.4,53.2 			"/>
		</g>
		<g>
			<polygon class="st3" points="200.3,53.2 198.2,66.1 189.2,56.7 			"/>
		</g>
		<g>
			<polygon class="st3" points="189.1,56.7 187,69.6 178,60.2 			"/>
		</g>
		<g>
			<path class="st3" d="M178,60.2l-2.2,12.9c-3-3.2-6-6.3-9-9.6C170.5,62.4,174.2,61.3,178,60.2z"/>
		</g>
		<g>
			<path class="st3" d="M166.8,63.5c-0.8,4.3-1.5,8.6-2.3,12.9c-3-3.2-5.9-6.4-8.8-9.7C159.3,65.7,163.1,64.7,166.8,63.5z"/>
		</g>
		<g>
			<path class="st3" d="M155.6,66.8c-0.8,4.3-1.7,8.6-2.6,12.9c-2.9-3.3-5.8-6.6-8.6-9.9l5.6-1.4L155.6,66.8z"/>
		</g>
		<g>
			<path class="st3" d="M144.4,69.7c-0.9,4.3-1.9,8.5-2.9,12.8c-2.8-3.3-5.6-6.7-8.3-10.1C136.9,71.6,140.6,70.7,144.4,69.7z"/>
		</g>
		<g>
			<path class="st3" d="M133.2,72.4c-1,4.3-2.2,8.4-3.4,12.7c-2.7-3.4-5.3-7-7.9-10.5C125.7,73.9,129.4,73.2,133.2,72.4z"/>
		</g>
		<g>
			<path class="st3" d="M121.9,74.6c-1.2,4.2-2.6,8.3-4,12.5c-2.5-3.6-4.9-7.3-7.2-10.9C114.4,75.7,118.2,75.2,121.9,74.6z"/>
		</g>
		<g>
			<path class="st3" d="M110.7,76.1c-1.5,4.1-3.1,8.1-4.9,12.1c-2.3-3.8-4.3-7.7-6.2-11.5c1.8-0.1,3.7-0.1,5.5-0.2
				C106.9,76.4,108.8,76.3,110.7,76.1z"/>
		</g>
	</g>
</g>
</svg>
