<?xml version="1.0" encoding="utf-8"?>
<!-- Generator: Adobe Illustrator 23.0.3, SVG Export Plug-In . SVG Version: 6.00 Build 0)  -->
<svg version="1.1" id="Layer_1" xmlns="http://www.w3.org/2000/svg" xmlns:xlink="http://www.w3.org/1999/xlink" x="0px" y="0px"
	 viewBox="0 0 128 256" style="enable-background:new 0 0 128 256;" xml:space="preserve">
<style type="text/css">
	.st0{fill:#006837;}
	.st1{fill:#BFBFBF;}
</style>
<path class="st0" d="M64,243.5c-6.9,0-12.5-5.6-12.5-12.5V18c0-6.9,5.6-12.5,12.5-12.5S76.5,11.1,76.5,18v213
	C76.5,237.9,70.9,243.5,64,243.5z"/>
<g>
	<g>
		<path class="st1" d="M63.9,242.5c-1.4,4-4.1,7.7-8,10.5c-1.1-4.7-0.8-9.3,0.8-13.2C58.7,241.5,61.2,242.5,63.9,242.5z"/>
	</g>
	<g>
		<path class="st1" d="M56.5,239.7c-3.6,2.2-8.1,3.3-12.9,3c2.1-4.3,5.4-7.7,9.1-9.7C53.2,235.6,54.5,238,56.5,239.7z"/>
	</g>
	<g>
		<path class="st1" d="M52.7,232.9c-2.1-0.3-4.1-1-6.2-2l-6-3l12-6v6v3C52.5,231.6,52.5,232.3,52.7,232.9z"/>
	</g>
	<g>
		<polygon class="st1" points="52.5,221.8 40.5,215.8 52.5,209.8 		"/>
	</g>
	<g>
		<polygon class="st1" points="52.5,209.6 40.5,203.6 52.5,197.6 		"/>
	</g>
	<g>
		<polygon class="st1" points="52.5,197.4 40.5,191.4 52.5,185.4 		"/>
	</g>
	<g>
		<polygon class="st1" points="52.5,185.2 40.5,179.2 52.5,173.2 		"/>
	</g>
	<g>
		<polygon class="st1" points="52.5,173 40.5,167 52.5,161 		"/>
	</g>
	<g>
		<polygon class="st1" points="52.5,160.9 40.5,154.9 52.5,148.9 		"/>
	</g>
	<g>
		<polygon class="st1" points="52.5,148.7 40.5,142.7 52.5,136.7 		"/>
	</g>
	<g>
		<polygon class="st1" points="52.5,136.5 40.5,130.5 52.5,124.5 		"/>
	</g>
	<g>
		<polygon class="st1" points="52.5,124.3 40.5,118.3 52.5,112.3 		"/>
	</g>
	<g>
		<polygon class="st1" points="52.5,112.1 40.5,106.1 52.5,100.1 		"/>
	</g>
	<g>
		<polygon class="st1" points="52.5,100 40.5,94 52.5,88 		"/>
	</g>
	<g>
		<polygon class="st1" points="52.5,87.8 40.5,81.8 52.5,75.8 		"/>
	</g>
	<g>
		<polygon class="st1" points="52.5,75.6 40.5,69.6 52.5,63.6 		"/>
	</g>
	<g>
		<polygon class="st1" points="52.5,63.4 40.5,57.4 52.5,51.4 		"/>
	</g>
	<g>
		<polygon class="st1" points="52.5,51.2 40.5,45.2 52.5,39.2 		"/>
	</g>
	<g>
		<polygon class="st1" points="52.5,39.1 40.5,33.1 52.5,27.1 		"/>
	</g>
	<g>
		<path class="st1" d="M52.5,26.9l-12-6c4-1.9,8-4.5,12.2-4.9c0,0.3-0.1,0.6-0.1,1c0,0.3,0,0.7-0.1,1l0,3V26.9z"/>
	</g>
	<g>
		<path class="st1" d="M52.7,15.8c-3.7-2-6.9-5.4-9-9.7c4.8-0.3,9.3,0.9,12.9,3.1C54.6,10.9,53.2,13.3,52.7,15.8z"/>
	</g>
	<g>
		<path class="st1" d="M56.7,9.1c-1.5-3.9-1.8-8.5-0.6-13.2C60-1.3,62.7,2.5,64,6.5C61.4,6.5,58.8,7.4,56.7,9.1z"/>
	</g>
	<g>
		<path class="st1" d="M64.1,6.5c1.4-4,4.1-7.7,8-10.5c1.1,4.7,0.8,9.3-0.8,13.2C69.3,7.5,66.8,6.5,64.1,6.5z"/>
	</g>
	<g>
		<path class="st1" d="M71.5,9.3c3.6-2.2,8.1-3.3,12.9-3C82.2,10.6,79,14,75.3,16C74.8,13.4,73.5,11,71.5,9.3z"/>
	</g>
	<g>
		<path class="st1" d="M75.3,16.1c2.1,0.3,4.1,1,6.2,2l6,3l-12,6v-6v-3C75.5,17.4,75.5,16.7,75.3,16.1z"/>
	</g>
	<g>
		<polygon class="st1" points="75.5,27.2 87.5,33.2 75.5,39.2 		"/>
	</g>
	<g>
		<polygon class="st1" points="75.5,39.4 87.5,45.4 75.5,51.4 		"/>
	</g>
	<g>
		<polygon class="st1" points="75.5,51.6 87.5,57.6 75.5,63.6 		"/>
	</g>
	<g>
		<polygon class="st1" points="75.5,63.8 87.5,69.8 75.5,75.8 		"/>
	</g>
	<g>
		<polygon class="st1" points="75.5,76 87.5,82 75.5,88 		"/>
	</g>
	<g>
		<polygon class="st1" points="75.5,88.1 87.5,94.1 75.5,100.1 		"/>
	</g>
	<g>
		<polygon class="st1" points="75.5,100.3 87.5,106.3 75.5,112.3 		"/>
	</g>
	<g>
		<polygon class="st1" points="75.5,112.5 87.5,118.5 75.5,124.5 		"/>
	</g>
	<g>
		<polygon class="st1" points="75.5,124.7 87.5,130.7 75.5,136.7 		"/>
	</g>
	<g>
		<polygon class="st1" points="75.5,136.9 87.5,142.9 75.5,148.9 		"/>
	</g>
	<g>
		<polygon class="st1" points="75.5,149 87.5,155 75.5,161 		"/>
	</g>
	<g>
		<polygon class="st1" points="75.5,161.2 87.5,167.2 75.5,173.2 		"/>
	</g>
	<g>
		<polygon class="st1" points="75.5,173.4 87.5,179.4 75.5,185.4 		"/>
	</g>
	<g>
		<polygon class="st1" points="75.5,185.6 87.5,191.6 75.5,197.6 		"/>
	</g>
	<g>
		<polygon class="st1" points="75.5,197.8 87.5,203.8 75.5,209.8 		"/>
	</g>
	<g>
		<polygon class="st1" points="75.5,209.9 87.5,215.9 75.5,221.9 		"/>
	</g>
	<g>
		<path class="st1" d="M75.5,222.1l12,6c-4,1.9-8,4.5-12.2,4.9c0-0.3,0.1-0.6,0.1-1c0-0.3,0-0.7,0.1-1l0-3V222.1z"/>
	</g>
	<g>
		<path class="st1" d="M75.3,233.2c3.7,2,6.9,5.4,9,9.7c-4.8,0.3-9.3-0.9-12.9-3.1C73.4,238.1,74.8,235.7,75.3,233.2z"/>
	</g>
	<g>
		<path class="st1" d="M71.3,239.9c1.5,3.9,1.8,8.5,0.6,13.2c-3.9-2.9-6.6-6.6-7.9-10.6C66.6,242.5,69.2,241.6,71.3,239.9z"/>
	</g>
</g>
</svg>
