<?xml version="1.0" encoding="utf-8"?>
<!-- Generator: Adobe Illustrator 23.0.3, SVG Export Plug-In . SVG Version: 6.00 Build 0)  -->
<svg version="1.1" id="Layer_1" xmlns="http://www.w3.org/2000/svg" xmlns:xlink="http://www.w3.org/1999/xlink" x="0px" y="0px"
	 viewBox="0 0 230 256" style="enable-background:new 0 0 230 256;" xml:space="preserve">
<style type="text/css">
	.st0{fill:none;stroke:#006837;stroke-width:6;stroke-miterlimit:10;}
	.st1{fill:#006837;}
	.st2{fill:#BFBFBF;}
</style>
<path class="st0" d="M-113.1,98"/>
<path class="st0" d="M-113.8,61"/>
<path class="st0" d="M-215.9,75.8"/>
<path class="st0" d="M-217.3,1.7"/>
<path class="st1" d="M256.9,237.5c-7.7,0-76-0.5-100.4-7.5c-19.9-5.7-66.2-25.3-83-44.9c-6.1-7.1-12.7-19.2-19-35.1
	c-5.5-13.8-9.3-26.6-10.7-32C39.7,101.7,32,54,31.7,52c-1.1-6.8,3.5-13.2,10.4-14.3c0.7-0.1,1.3-0.2,2-0.2c6.2,0,11.3,4.4,12.3,10.5
	c2.2,13.5,8.5,51.2,11.8,63.9c4.4,17,15.7,46.9,24.4,57c11.6,13.4,50.4,31.2,71,37.1c17.8,5.1,73.6,6.4,93.6,6.5
	c3.3,0,6.5,1.3,8.8,3.7c2.4,2.4,3.6,5.5,3.6,8.9C269.5,231.9,263.9,237.5,256.9,237.5L256.9,237.5z"/>
<g>
	<g>
		<path class="st2" d="M256.9,236.5c-2,4-4,8-6.1,11.9l-5.8-12.1C249,236.4,253,236.5,256.9,236.5z"/>
	</g>
	<g>
		<polygon class="st2" points="244.9,236.4 238.7,248.2 233,236.1 		"/>
	</g>
	<g>
		<polygon class="st2" points="232.9,236.1 226.6,247.9 221,235.7 		"/>
	</g>
	<g>
		<path class="st2" d="M220.9,235.7l-6.5,11.7c-1.8-4.1-3.6-8.2-5.4-12.3C213,235.4,217,235.5,220.9,235.7z"/>
	</g>
	<g>
		<path class="st2" d="M208.9,235.1c-2.2,3.9-4.4,7.8-6.7,11.6c-1.8-4.1-3.5-8.2-5.2-12.4C201,234.7,205,234.9,208.9,235.1z"/>
	</g>
	<g>
		<path class="st2" d="M197,234.4c-2.3,3.8-4.5,7.7-6.9,11.5c-1.7-4.1-3.3-8.3-4.9-12.5C189.1,233.8,193,234.1,197,234.4z"/>
	</g>
	<g>
		<path class="st2" d="M185.1,233.4c-2.3,3.8-4.7,7.6-7.2,11.3c-1.6-4.2-3.1-8.4-4.5-12.6C177.3,232.6,181.2,233.1,185.1,233.4z"/>
	</g>
	<g>
		<path class="st2" d="M173.3,232.1c-2.4,3.7-5,7.4-7.7,11c-1.4-4.3-2.7-8.6-3.7-12.9l5.6,1L173.3,232.1z"/>
	</g>
	<g>
		<path class="st2" d="M161.8,230.3c-2.6,3.5-5.5,6.9-8.7,10.2c-0.9-4.5-1.6-8.8-2.2-13.3c1.8,0.6,3.7,1.2,5.5,1.7
			C158.3,229.4,160,229.8,161.8,230.3z"/>
	</g>
	<g>
		<path class="st2" d="M150.9,227.2c-1.5,1.6-3.1,3.2-4.7,4.7c-1.6,1.5-3.2,3.1-4.9,4.6c-0.6-4.4-1-8.9-1.4-13.3
			c1.8,0.7,3.7,1.4,5.5,2.1l2.8,1L150.9,227.2z"/>
	</g>
	<g>
		<path class="st2" d="M139.8,223.2c-3.3,3-6.6,6-10,8.9c-0.4-4.5-0.7-8.9-0.9-13.4c1.8,0.8,3.6,1.6,5.4,2.3
			C136.1,221.7,137.9,222.5,139.8,223.2z"/>
	</g>
	<g>
		<path class="st2" d="M128.8,218.7c-3.4,2.9-6.9,5.7-10.4,8.5c-0.2-4.5-0.3-8.9-0.3-13.4c1.8,0.9,3.5,1.7,5.3,2.5
			C125.2,217.1,127,217.9,128.8,218.7z"/>
	</g>
	<g>
		<path class="st2" d="M118.1,213.7c-3.5,2.7-7.1,5.5-10.7,8.1c0-4.5,0.1-9,0.2-13.4C111,210.3,114.5,212.1,118.1,213.7z"/>
	</g>
	<g>
		<path class="st2" d="M107.5,208.4c-3.6,2.6-7.3,5.1-11.1,7.6c0.2-4.5,0.5-9,0.9-13.4l5,3L107.5,208.4z"/>
	</g>
	<g>
		<path class="st2" d="M97.3,202.6c-3.8,2.4-7.5,4.7-11.5,6.9c0.4-4.4,1.1-8.9,1.9-13.3C90.8,198.5,94,200.5,97.3,202.6z"/>
	</g>
	<g>
		<path class="st2" d="M87.6,196.2c-3.9,2.2-7.9,4.1-12,5.9c0.8-4.4,1.9-8.8,3.3-13c1.4,1.2,2.7,2.5,4.2,3.6
			C84.6,193.9,86,195.1,87.6,196.2z"/>
	</g>
	<g>
		<path class="st2" d="M78.8,189.1c-2.1,0.9-4.2,1.7-6.2,2.3c-2.1,0.7-4.3,1.3-6.5,1.8c0.7-2.1,1.6-4.2,2.5-6.3c0.9-2,1.9-4,3-5.9
			c0.5,0.8,1.1,1.4,1.7,2.1c0.6,0.7,1.1,1.4,1.7,2.1C76.2,186.5,77.3,187.9,78.8,189.1z"/>
	</g>
	<g>
		<path class="st2" d="M71.5,181c-4.3,0.8-8.8,1.4-13.3,1.7c1.1-2,2.3-3.9,3.5-5.7c1.2-1.9,2.5-3.7,3.8-5.5
			C67.4,174.8,69.4,177.9,71.5,181z"/>
	</g>
	<g>
		<path class="st2" d="M65.5,171.3c-2.2,0.1-4.5,0.2-6.7,0.3c-2.2,0-4.5,0-6.7,0c2.6-3.6,5.4-7.2,8.2-10.6c0.8,1.8,1.6,3.5,2.5,5.2
			l1.3,2.6C64.6,169.7,65.1,170.5,65.5,171.3z"/>
	</g>
	<g>
		<path class="st2" d="M60.3,160.9c-4.5-0.1-8.9-0.3-13.4-0.6c2.9-3.5,5.8-6.8,8.8-10.1C57.2,153.8,58.7,157.4,60.3,160.9z"/>
	</g>
	<g>
		<path class="st2" d="M55.7,150.1c-4.4-0.3-8.9-0.8-13.4-1.2c3-3.3,6.1-6.6,9.2-9.8c0.6,1.9,1.3,3.7,2,5.5L55.7,150.1z"/>
	</g>
	<g>
		<path class="st2" d="M51.5,139c-4.4-0.5-8.9-1.1-13.3-1.8c3.1-3.2,6.3-6.3,9.6-9.4C48.9,131.6,50.2,135.3,51.5,139z"/>
	</g>
	<g>
		<path class="st2" d="M47.7,127.8c-4.4-0.7-8.8-1.4-13.2-2.3c3.3-3.1,6.6-6.1,10-8.9C45.5,120.3,46.6,124.1,47.7,127.8z"/>
	</g>
	<g>
		<path class="st2" d="M44.5,116.5c-4.4-0.9-8.7-2-13-3.2c3.5-2.8,7-5.6,10.5-8.3C42.8,108.9,43.6,112.8,44.5,116.5z"/>
	</g>
	<g>
		<path class="st2" d="M42,105c-4.3-1.2-8.6-2.4-12.9-3.6c3.5-2.7,7.1-5.4,10.7-8.1C40.5,97.2,41.3,101.1,42,105z"/>
	</g>
	<g>
		<polygon class="st2" points="39.8,93.2 26.9,89.5 37.7,81.4 		"/>
	</g>
	<g>
		<polygon class="st2" points="37.6,81.4 24.8,77.5 35.6,69.6 		"/>
	</g>
	<g>
		<polygon class="st2" points="35.6,69.5 22.8,65.6 33.6,57.7 		"/>
	</g>
	<g>
		<path class="st2" d="M33.6,57.6c-4.3-1.3-8.5-2.6-12.8-4c3.5-3.3,7.8-5.2,11.9-5.7c-0.2,1.3-0.3,2.6-0.1,3.9L33.6,57.6z"/>
	</g>
	<g>
		<path class="st2" d="M32.7,47.8c-3.7-2.1-6.8-5.4-8.9-9.8c4.8-0.3,9.3,0.9,12.9,3.2C34.6,42.8,33.2,45.2,32.7,47.8z"/>
	</g>
	<g>
		<path class="st2" d="M36.7,41.1c-1.5-3.9-1.8-8.6-0.6-13.2c3.9,2.8,6.6,6.6,7.9,10.6C41.4,38.5,38.8,39.5,36.7,41.1z"/>
	</g>
	<g>
		<path class="st2" d="M44.1,38.5c1.3-4,4-7.8,8-10.6c1.2,4.7,0.8,9.3-0.7,13.2C49.3,39.4,46.7,38.5,44.1,38.5z"/>
	</g>
	<g>
		<path class="st2" d="M51.4,41.2c3.6-2.2,8.1-3.4,12.9-3.1c-2.1,4.3-5.3,7.7-9,9.8C54.8,45.2,53.4,42.9,51.4,41.2z"/>
	</g>
	<g>
		<path class="st2" d="M55.3,47.9l0.8,0.1c0.3,0,0.5,0.2,0.8,0.2l1.6,0.5l3.2,1l6.4,2l-10.9,7.9L55.3,47.9z"/>
	</g>
	<g>
		<polygon class="st2" points="57.3,59.7 70.1,63.6 59.3,71.6 		"/>
	</g>
	<g>
		<polygon class="st2" points="59.3,71.6 72.1,75.5 61.4,83.5 		"/>
	</g>
	<g>
		<path class="st2" d="M61.4,83.6l12.9,3.7c-3.6,2.7-7.1,5.4-10.7,8.1C62.8,91.5,62.1,87.5,61.4,83.6z"/>
	</g>
	<g>
		<path class="st2" d="M63.6,95.5c4.3,1.2,8.6,2.4,12.9,3.6c-3.5,2.7-7,5.5-10.5,8.4C65.2,103.4,64.4,99.5,63.6,95.5z"/>
	</g>
	<g>
		<path class="st2" d="M66.1,107.5c2.2,0.6,4.3,1.1,6.5,1.6c2.2,0.5,4.3,0.9,6.5,1.4c-3.4,2.9-6.7,5.9-9.9,9.1c-0.6-2-1.2-4-1.7-6
			C67,111.6,66.5,109.5,66.1,107.5z"/>
	</g>
	<g>
		<path class="st2" d="M69.3,119.6c4.4,0.8,8.8,1.5,13.3,2.1c-3.2,3.1-6.3,6.3-9.4,9.6C71.7,127.5,70.5,123.6,69.3,119.6z"/>
	</g>
	<g>
		<path class="st2" d="M73.2,131.4c4.5,0.6,8.9,1.1,13.3,1.4c-3,3.3-6,6.6-8.9,10C76,139.1,74.6,135.2,73.2,131.4z"/>
	</g>
	<g>
		<path class="st2" d="M77.6,142.9c4.5,0.4,9,0.7,13.4,0.8c-2.9,3.4-5.7,6.9-8.4,10.5C80.8,150.5,79.2,146.7,77.6,142.9z"/>
	</g>
	<g>
		<path class="st2" d="M82.6,154.3c2.2,0.1,4.5,0.1,6.7,0.1c2.2,0,4.4-0.1,6.7-0.2c-2.6,3.6-5.1,7.2-7.2,11.3
			C86.3,161.7,84.5,158,82.6,154.3z"/>
	</g>
	<g>
		<path class="st2" d="M88.8,165.6c1.1-0.1,2.3-0.2,3.4-0.3c1.1-0.1,2.3-0.3,3.4-0.5c2.1-0.4,4.3-1.1,6.3-2c-0.4,1-0.8,2-1.2,3.1
			c-0.3,1-0.6,2.1-0.9,3.2c-0.6,2.1-1,4.4-1.4,6.6c-0.9-0.6-1.7-1.4-2.6-2.1l-1.3-1.1c-0.4-0.4-0.8-0.8-1.3-1.3
			c-0.8-0.9-1.7-1.7-2.4-2.7c-0.4-0.5-0.8-1-1.1-1.4L88.8,165.6z"/>
	</g>
	<g>
		<path class="st2" d="M98.4,175.7c2.1-0.9,4.1-1.9,6.1-2.9c2-1,3.9-2.2,5.8-3.3c-0.7,4.4-1.1,8.8-1.4,13.3
			c-1.8-1.1-3.6-2.2-5.3-3.4c-0.9-0.6-1.8-1.2-2.6-1.8L98.4,175.7z"/>
	</g>
	<g>
		<path class="st2" d="M109,182.9c3.8-2.3,7.6-4.8,11.2-7.3c-0.2,4.4-0.4,8.9-0.4,13.4c-1.8-1-3.6-2-5.4-2.9
			C112.6,184.9,110.8,183.9,109,182.9z"/>
	</g>
	<g>
		<path class="st2" d="M119.9,189c3.7-2.6,7.3-5.2,10.8-8c0,4.4,0,8.9,0.2,13.4C127.2,192.7,123.5,190.9,119.9,189z"/>
	</g>
	<g>
		<path class="st2" d="M131,194.4c3.5-2.8,7-5.6,10.4-8.4c0.2,4.5,0.4,8.9,0.8,13.4C138.4,197.8,134.7,196.2,131,194.4z"/>
	</g>
	<g>
		<path class="st2" d="M142.2,199.4c3.4-2.9,6.8-5.9,10-8.9c0.4,4.5,0.8,8.9,1.4,13.3C149.8,202.5,146,201,142.2,199.4z"/>
	</g>
	<g>
		<path class="st2" d="M153.8,203.9c3.3-3.1,6.5-6.2,9.5-9.4c0.3,2.2,0.7,4.4,1.1,6.6c0.4,2.2,0.9,4.4,1.6,6.6
			c-1.1-0.3-2.2-0.5-3.2-0.8l-3-0.9C157.7,205.2,155.7,204.6,153.8,203.9z"/>
	</g>
	<g>
		<path class="st2" d="M166,207.6c0.8-0.8,1.5-1.7,2.2-2.6c0.7-0.9,1.4-1.8,2.1-2.7c1.3-1.8,2.6-3.6,3.9-5.4
			c1.3,4.2,2.7,8.5,4.3,12.7C174.4,209.2,170.3,208.6,166,207.6z"/>
	</g>
	<g>
		<path class="st2" d="M178.6,209.7c2.5-3.7,4.9-7.5,7.3-11.3c1.6,4.2,3.2,8.3,4.9,12.5c-2-0.2-4-0.3-6.1-0.5
			C182.6,210.1,180.6,209.9,178.6,209.7z"/>
	</g>
	<g>
		<path class="st2" d="M190.8,210.9c2.4-3.8,4.6-7.7,6.9-11.5c1.7,4.1,3.4,8.3,5.2,12.4C198.9,211.5,194.8,211.2,190.8,210.9z"/>
	</g>
	<g>
		<path class="st2" d="M203,211.7c2.3-3.9,4.5-7.7,6.7-11.6c1.8,4.1,3.6,8.2,5.4,12.3C211,212.2,207,212,203,211.7z"/>
	</g>
	<g>
		<path class="st2" d="M215.1,212.4c2.2-3.9,4.4-7.8,6.5-11.7l5.5,12.2C223.2,212.7,219.2,212.6,215.1,212.4z"/>
	</g>
	<g>
		<path class="st2" d="M227.3,212.9l6.4-11.8l5.7,12.2C235.3,213.1,231.3,213,227.3,212.9z"/>
	</g>
	<g>
		<path class="st2" d="M239.4,213.2l6.2-11.9l5.8,12.1C247.5,213.4,243.4,213.3,239.4,213.2z"/>
	</g>
	<g>
		<path class="st2" d="M251.6,213.5l3.1-6l1.5-3c0.5-1,0.9-2,1.7-3c2.5,4.1,3.7,8.6,3.4,12.8c-1.2-0.5-2.5-0.8-3.8-0.8l-0.2,0
			l-0.1,0l-0.2,0l-0.8,0l-1.5,0L251.6,213.5z"/>
	</g>
	<g>
		<path class="st2" d="M261.3,214.3c2.7-3.2,6.6-5.7,11.3-6.9c-0.7,4.8-2.6,8.9-5.5,12C265.8,217.2,263.7,215.3,261.3,214.3z"/>
	</g>
	<g>
		<path class="st2" d="M267.1,219.5c4.1-0.8,8.7-0.2,13.1,1.9c-3.6,3.3-7.7,5.2-11.9,5.8C268.8,224.6,268.3,221.8,267.1,219.5z"/>
	</g>
	<g>
		<path class="st2" d="M268.3,227.2c3.7,2,6.8,5.4,8.9,9.8c-4.8,0.3-9.3-0.9-12.9-3.2C266.4,232.2,267.8,229.8,268.3,227.2z"/>
	</g>
	<g>
		<path class="st2" d="M264.3,233.9c1.5,3.9,1.8,8.5,0.6,13.2c-3.9-2.9-6.6-6.6-7.9-10.6C259.6,236.5,262.2,235.6,264.3,233.9z"/>
	</g>
</g>
</svg>
