<?xml version="1.0" encoding="utf-8"?>
<!-- Generator: Adobe Illustrator 23.0.3, SVG Export Plug-In . SVG Version: 6.00 Build 0)  -->
<svg version="1.1" id="Layer_1" xmlns="http://www.w3.org/2000/svg" xmlns:xlink="http://www.w3.org/1999/xlink" x="0px" y="0px"
	 viewBox="0 0 640 256" style="enable-background:new 0 0 640 256;" xml:space="preserve">
<style type="text/css">
	.st0{fill:none;stroke:#006837;stroke-width:6;stroke-miterlimit:10;}
	.st1{fill:#006837;}
	.st2{fill:#BFBFBF;}
</style>
<path class="st1" d="M640.2,251.3c-5.6-0.4-142-10.1-188.5-15.9l-2.7-0.3c-4.2-0.5-9-1.1-14-1.7C398,229,342,222.4,313,211.9
	c-23.5-8.6-67.3-30.8-84.7-48.7c-14.5-14.9-34.8-48.7-41-68.3c-4.5-14.2-6.4-37.2-6.6-39.8c-0.5-6.8,4.7-12.9,11.5-13.4
	c0.3,0,0.6,0,0.9,0c6.6,0,12,5,12.5,11.6c0.2,2.4,2,23.3,5.4,34.2c5,15.9,23.3,46.4,35,58.3c10.5,10.8,46.5,32.3,75.3,42.7
	c25.6,9.3,79.3,15.8,114.8,20l1.8,0.2c4.6,0.5,8.8,1,12.7,1.5l4.1,0.5c43.6,5.4,172.5,14.7,187.1,15.7l0.3,0
	c3.3,0.2,6.3,1.8,8.5,4.3c2.2,2.5,3.3,5.7,3,9c-0.4,6.5-5.8,11.6-12.3,11.6H640.2z"/>
<g>
	<g>
		<path class="st2" d="M641.2,250.3c-0.8,2-1.9,4-3,5.9l-3.4,5.8l-5.1-12.4l6,0.4l2.9,0.2l1.4,0.1
			C640.4,250.3,640.8,250.3,641.2,250.3z"/>
	</g>
	<g>
		<polygon class="st2" points="629.6,249.5 622.7,261.1 617.6,248.7 		"/>
	</g>
	<g>
		<polygon class="st2" points="617.5,248.7 610.7,260.2 605.6,247.8 		"/>
	</g>
	<g>
		<polygon class="st2" points="605.5,247.8 598.6,259.3 593.5,246.9 		"/>
	</g>
	<g>
		<polygon class="st2" points="593.4,246.9 586.6,258.4 581.5,246 		"/>
	</g>
	<g>
		<polygon class="st2" points="581.4,246 574.5,257.5 569.4,245 		"/>
	</g>
	<g>
		<polygon class="st2" points="569.4,245 562.4,256.5 557.4,244.1 		"/>
	</g>
	<g>
		<polygon class="st2" points="557.3,244.1 550.4,255.6 545.4,243.1 		"/>
	</g>
	<g>
		<polygon class="st2" points="545.3,243.1 538.3,254.6 533.3,242.1 		"/>
	</g>
	<g>
		<polygon class="st2" points="533.2,242.1 526.3,253.6 521.3,241.1 		"/>
	</g>
	<g>
		<polygon class="st2" points="521.2,241.1 514.2,252.6 509.3,240.1 		"/>
	</g>
	<g>
		<polygon class="st2" points="509.2,240.1 502.2,251.5 497.3,239 		"/>
	</g>
	<g>
		<polygon class="st2" points="497.2,239 490.1,250.4 485.2,237.9 		"/>
	</g>
	<g>
		<polygon class="st2" points="485.2,237.9 478,249.3 473.2,236.8 		"/>
	</g>
	<g>
		<polygon class="st2" points="473.2,236.8 466,248.1 461.3,235.5 		"/>
	</g>
	<g>
		<path class="st2" d="M461.2,235.5c-2.4,3.7-4.8,7.5-7.3,11.2l-4.5-12.6L461.2,235.5z"/>
	</g>
	<g>
		<polygon class="st2" points="449.3,234.1 441.9,245.3 437.3,232.7 		"/>
	</g>
	<g>
		<polygon class="st2" points="437.2,232.7 429.9,243.9 425.3,231.3 		"/>
	</g>
	<g>
		<polygon class="st2" points="425.3,231.3 417.9,242.4 413.4,229.8 		"/>
	</g>
	<g>
		<polygon class="st2" points="413.3,229.8 405.8,241 401.4,228.3 		"/>
	</g>
	<g>
		<polygon class="st2" points="401.3,228.3 393.8,239.4 389.5,226.7 		"/>
	</g>
	<g>
		<path class="st2" d="M389.4,226.7c-2.5,3.7-5.1,7.4-7.6,11l-4.2-12.7C381.5,225.5,385.5,226.1,389.4,226.7z"/>
	</g>
	<g>
		<path class="st2" d="M377.5,224.9l-7.8,10.9c-1.4-4.2-2.7-8.5-4-12.8C369.7,223.8,373.6,224.3,377.5,224.9z"/>
	</g>
	<g>
		<path class="st2" d="M365.7,223.1c-2.6,3.6-5.3,7.3-7.9,10.8c-1.3-4.3-2.6-8.6-3.8-12.9C357.8,221.7,361.7,222.4,365.7,223.1z"/>
	</g>
	<g>
		<path class="st2" d="M353.9,221c-2.7,3.6-5.4,7.1-8.1,10.7c-1.2-4.3-2.4-8.6-3.5-13C346.1,219.6,350,220.3,353.9,221z"/>
	</g>
	<g>
		<path class="st2" d="M342.2,218.7c-2.8,3.5-5.6,7-8.4,10.4c-1.1-4.4-2.1-8.7-3-13.1C334.5,217,338.3,217.9,342.2,218.7z"/>
	</g>
	<g>
		<path class="st2" d="M330.6,216.1c-2.9,3.4-5.8,6.8-8.9,10.1c-0.9-4.4-1.7-8.8-2.4-13.2l5.6,1.6L330.6,216.1z"/>
	</g>
	<g>
		<path class="st2" d="M319.3,212.9c-3,3.2-6.2,6.4-9.5,9.5c-0.6-4.5-1-8.9-1.4-13.3c1.8,0.7,3.6,1.4,5.4,2.1
			C315.6,211.7,317.4,212.3,319.3,212.9z"/>
	</g>
	<g>
		<path class="st2" d="M308.3,209c-3.3,3-6.7,5.9-10.1,8.8c-0.3-4.5-0.6-8.9-0.7-13.4C301.1,206.1,304.7,207.6,308.3,209z"/>
	</g>
	<g>
		<path class="st2" d="M297.4,204.4c-3.4,2.8-6.9,5.7-10.4,8.4c-0.1-4.5-0.2-9-0.2-13.4C290.3,201.1,293.8,202.8,297.4,204.4z"/>
	</g>
	<g>
		<path class="st2" d="M286.7,199.4c-3.5,2.7-7.1,5.4-10.7,8.1c0-4.5,0.1-9,0.2-13.4l5.3,2.7L286.7,199.4z"/>
	</g>
	<g>
		<path class="st2" d="M276,194c-3.6,2.6-7.2,5.2-10.9,7.7c0.1-4.5,0.3-9,0.6-13.4C269.1,190.3,272.6,192.2,276,194z"/>
	</g>
	<g>
		<path class="st2" d="M265.6,188.3c-3.7,2.5-7.4,5-11.2,7.4c0.3-4.5,0.6-8.9,1.1-13.4c1.6,1.1,3.4,2,5,3
			C262.2,186.4,263.9,187.3,265.6,188.3z"/>
	</g>
	<g>
		<path class="st2" d="M255.4,182.3c-3.8,2.4-7.6,4.7-11.5,6.9c0.5-4.5,1-8.9,1.7-13.3l4.9,3.2C252.1,180.2,253.7,181.2,255.4,182.3
			z"/>
	</g>
	<g>
		<path class="st2" d="M245.5,175.9c-3.8,2.2-7.8,4.3-11.9,6.3c0.7-4.5,1.6-8.9,2.6-13.2l4.6,3.5L245.5,175.9z"/>
	</g>
	<g>
		<path class="st2" d="M236.2,168.9c-3.9,1.9-8.1,3.7-12.4,5.2c0.6-2.2,1.2-4.4,1.9-6.5c0.3-1.1,0.7-2.1,1.1-3.1
			c0.4-1.1,0.8-2.1,1.2-3.1l0.9,1c0.3,0.3,0.7,0.6,1,1l2,1.9C233.2,166.5,234.7,167.7,236.2,168.9z"/>
	</g>
	<g>
		<path class="st2" d="M227.9,161.3c-2.1,0.7-4.2,1.3-6.4,1.9c-2.2,0.6-4.3,1.1-6.6,1.6c1.7-4.2,3.7-8.2,5.6-12.2
			C222.9,155.6,225.3,158.6,227.9,161.3z"/>
	</g>
	<g>
		<path class="st2" d="M220.5,152.5c-4.3,0.9-8.8,1.7-13.2,2.3c2.1-4,4.2-7.9,6.4-11.8C215.9,146.3,218.2,149.4,220.5,152.5z"/>
	</g>
	<g>
		<path class="st2" d="M213.7,143c-4.4,0.6-8.9,1.2-13.3,1.6c2.3-3.9,4.5-7.7,6.9-11.5C209.3,136.5,211.5,139.7,213.7,143z"/>
	</g>
	<g>
		<path class="st2" d="M207.2,133.1c-4.4,0.4-8.9,0.8-13.4,1c2.4-3.8,4.9-7.5,7.4-11.2c0.9,1.7,1.9,3.4,2.9,5.1
			C205.2,129.7,206.2,131.4,207.2,133.1z"/>
	</g>
	<g>
		<path class="st2" d="M201.3,122.9c-4.5,0.3-8.9,0.4-13.4,0.5c2.6-3.7,5.2-7.3,7.9-10.8c0.9,1.7,1.7,3.5,2.7,5.2
			C199.4,119.4,200.3,121.2,201.3,122.9z"/>
	</g>
	<g>
		<path class="st2" d="M195.7,112.4c-4.5,0-8.9,0-13.4-0.2c2.8-3.5,5.6-7,8.6-10.3c0.7,1.8,1.5,3.5,2.3,5.3
			C194.1,108.9,194.8,110.7,195.7,112.4z"/>
	</g>
	<g>
		<path class="st2" d="M190.9,101.8c-4.4-0.3-8.9-0.6-13.3-1.4c3.1-3.3,6.3-6.4,9.7-9.2C188.2,94.8,189.5,98.3,190.9,101.8z"/>
	</g>
	<g>
		<path class="st2" d="M187.2,91.1c-4.4-0.8-8.7-1.8-13.1-3c3.5-2.9,7-5.6,10.6-8.2C185.5,83.7,186.3,87.5,187.2,91.1z"/>
	</g>
	<g>
		<path class="st2" d="M184.8,79.8c-4.3-1.2-8.5-2.6-12.8-4c3.7-2.6,7.3-5.1,11.1-7.6C183.6,72.1,184.1,76,184.8,79.8z"/>
	</g>
	<g>
		<path class="st2" d="M183,68.2c-4.2-1.4-8.4-3-12.6-4.6c3.8-2.4,7.5-4.8,11.4-7.1C182.1,60.4,182.6,64.3,183,68.2z"/>
	</g>
	<g>
		<path class="st2" d="M181.8,56.4l-3.1-1.2c-1-0.3-2-0.8-3-1.3c-2-1-3.9-2.4-5.6-4.1c4.4-1.9,9.1-2.3,13.2-1.4
			c-0.7,1.1-1.1,2.4-1.4,3.7c-0.1,0.6-0.2,1.3-0.2,2c0,0.3,0,0.7,0,1L181.8,56.4z"/>
	</g>
	<g>
		<path class="st2" d="M183.3,48.3c-2.8-3.2-4.6-7.4-5.1-12.2c4.6,1.4,8.5,3.9,11.1,7.2C186.8,44.3,184.6,46,183.3,48.3z"/>
	</g>
	<g>
		<path class="st2" d="M189.3,43.4c-0.1-4.2,1.1-8.7,3.8-12.7c2.7,4,4,8.5,3.9,12.7c-1.2-0.4-2.6-0.7-3.9-0.7
			C191.8,42.6,190.5,42.9,189.3,43.4z"/>
	</g>
	<g>
		<path class="st2" d="M197,43.4c2.6-3.3,6.4-5.9,11-7.3c-0.5,4.8-2.3,9.1-5.1,12.2C201.6,46,199.5,44.2,197,43.4z"/>
	</g>
	<g>
		<path class="st2" d="M203,48.3c4.1-0.9,8.8-0.5,13.2,1.4c-0.8,0.8-1.8,1.6-2.7,2.3c-0.9,0.7-1.9,1.2-2.8,1.8
			c-1.9,1.2-3.8,2.4-5.7,3.6c-0.2-1.9-0.4-4.4-0.6-5.4C204.2,50.7,203.7,49.5,203,48.3z"/>
	</g>
	<g>
		<path class="st2" d="M205,57.5c4.2,1.6,8.4,3.2,12.6,4.7c-3.7,2.4-7.5,4.9-11.1,7.5C205.9,65.6,205.4,61.6,205,57.5z"/>
	</g>
	<g>
		<path class="st2" d="M206.5,69.7c4.2,1.5,8.5,2.9,12.8,4.1c-3.6,2.6-7.2,5.3-10.6,8.2C207.7,77.9,207.1,73.8,206.5,69.7z"/>
	</g>
	<g>
		<path class="st2" d="M208.6,82.1c4.4,1.2,8.8,2.2,13.1,2.6c-1.6,1.5-3.2,3-4.7,4.7c-1.5,1.6-3,3.4-4.4,5.1l-1.2-3
			c-0.4-1-0.7-2.1-1.1-3.1c-0.4-1-0.7-2.2-1-3.2C209.1,84.2,208.8,83.1,208.6,82.1z"/>
	</g>
	<g>
		<path class="st2" d="M212.7,94.6c4.5,0.4,9,0.5,13.4,0.5c-2.8,3.5-5.4,7-8,10.7C216.2,102.2,214.3,98.5,212.7,94.6z"/>
	</g>
	<g>
		<path class="st2" d="M218.1,106c4.5,0,9-0.2,13.4-0.4c-2.5,3.6-5,7.4-7.4,11.2C222,113.2,220,109.6,218.1,106z"/>
	</g>
	<g>
		<path class="st2" d="M224.1,116.8c4.5-0.3,9-0.6,13.4-1.1c-2.4,3.8-4.7,7.6-6.9,11.5C228.4,123.8,226.2,120.3,224.1,116.8z"/>
	</g>
	<g>
		<path class="st2" d="M230.7,127.3c4.5-0.5,8.9-1.1,13.3-1.8c-2.2,3.9-4.2,7.8-6.2,11.9C235.3,134.1,232.9,130.7,230.7,127.3z"/>
	</g>
	<g>
		<path class="st2" d="M237.8,137.5c4.5-0.8,8.8-1.6,13.1-2.8c-0.9,2-1.8,4.1-2.6,6.1c-0.8,2.1-1.5,4.3-2.1,6.4
			C243,144.1,240.4,140.8,237.8,137.5z"/>
	</g>
	<g>
		<path class="st2" d="M246.3,147.4c2.2-0.7,4.3-1.4,6.4-2.3c2.1-0.9,4.1-1.8,6-2.8c-1,4.3-1.8,8.7-2.4,13.2
			C253,153,249.6,150.5,246.3,147.4z"/>
	</g>
	<g>
		<path class="st2" d="M256.4,155.5c4-2.1,7.9-4.2,11.7-6.5c-0.3,2.2-0.6,4.4-0.8,6.7c-0.2,2.2-0.4,4.4-0.6,6.7l-2.6-1.6l-2.6-1.7
			C259.8,157.9,258.1,156.7,256.4,155.5z"/>
	</g>
	<g>
		<path class="st2" d="M266.8,162.4c3.8-2.3,7.6-4.7,11.4-7.2c-0.4,4.5-0.6,8.9-0.8,13.4c-1.8-1-3.5-2-5.3-3.1
			C270.3,164.5,268.5,163.5,266.8,162.4z"/>
	</g>
	<g>
		<path class="st2" d="M277.4,168.6c3.7-2.5,7.4-5,11.1-7.6c-0.2,4.5-0.3,8.9-0.3,13.4C284.5,172.6,281,170.7,277.4,168.6z"/>
	</g>
	<g>
		<path class="st2" d="M288.2,174.5c3.6-2.6,7.3-5.3,10.8-8c0,4.5,0,8.9,0.1,13.4C295.5,178.2,291.8,176.4,288.2,174.5z"/>
	</g>
	<g>
		<path class="st2" d="M299.2,180c3.6-2.7,7.1-5.5,10.5-8.3c0.1,4.5,0.3,8.9,0.6,13.4C306.6,183.5,302.9,181.8,299.2,180z"/>
	</g>
	<g>
		<path class="st2" d="M310.4,185.1c3.5-2.9,6.9-5.8,10.1-8.8c0.3,4.4,0.7,8.9,1.4,13.3c-2-0.7-3.9-1.4-5.8-2.2
			C314.2,186.7,312.3,186,310.4,185.1z"/>
	</g>
	<g>
		<path class="st2" d="M322.1,189.7c3.3-3.1,6.4-6.2,9.4-9.6c0.7,4.4,1.6,8.8,2.6,13.2C330,192.3,326.1,191.1,322.1,189.7z"/>
	</g>
	<g>
		<path class="st2" d="M334.1,193.3c3-3.4,5.9-6.7,8.7-10.2c1,4.3,2.1,8.7,3.2,13C342.1,195.2,338.1,194.4,334.1,193.3z"/>
	</g>
	<g>
		<path class="st2" d="M346.1,196.1c2.8-3.5,5.6-7,8.3-10.6c1.2,4.3,2.4,8.6,3.7,12.9l-6-1.1L346.1,196.1z"/>
	</g>
	<g>
		<path class="st2" d="M358.2,198.5c2.7-3.6,5.4-7.2,8-10.8c1.3,4.3,2.6,8.6,3.9,12.8C366.1,199.9,362.1,199.2,358.2,198.5z"/>
	</g>
	<g>
		<path class="st2" d="M370.2,200.6c2.6-3.6,5.2-7.3,7.8-10.9l4.1,12.8C378.1,201.8,374.2,201.2,370.2,200.6z"/>
	</g>
	<g>
		<path class="st2" d="M382.2,202.4c2.6-3.6,5.1-7.3,7.7-11l4.3,12.7L382.2,202.4z"/>
	</g>
	<g>
		<polygon class="st2" points="394.2,204.2 401.8,193.1 406.2,205.8 		"/>
	</g>
	<g>
		<polygon class="st2" points="406.3,205.8 413.7,194.6 418.2,207.3 		"/>
	</g>
	<g>
		<polygon class="st2" points="418.3,207.3 425.7,196.1 430.2,208.7 		"/>
	</g>
	<g>
		<polygon class="st2" points="430.3,208.8 437.7,197.6 442.2,210.2 		"/>
	</g>
	<g>
		<polygon class="st2" points="442.3,210.2 449.7,199 454.2,211.6 		"/>
	</g>
	<g>
		<path class="st2" d="M454.3,211.6c2.5-3.7,4.9-7.5,7.4-11.2c1.5,4.2,3.1,8.4,4.6,12.6C462.3,212.6,458.3,212.1,454.3,211.6z"/>
	</g>
	<g>
		<polygon class="st2" points="466.4,213 473.6,201.7 478.4,214.2 		"/>
	</g>
	<g>
		<polygon class="st2" points="478.5,214.2 485.6,202.9 490.5,215.4 		"/>
	</g>
	<g>
		<polygon class="st2" points="490.6,215.4 497.6,204 502.5,216.5 		"/>
	</g>
	<g>
		<polygon class="st2" points="502.6,216.5 509.6,205 514.6,217.5 		"/>
	</g>
	<g>
		<polygon class="st2" points="514.7,217.5 521.7,206.1 526.6,218.5 		"/>
	</g>
	<g>
		<polygon class="st2" points="526.7,218.5 533.7,207.1 538.7,219.5 		"/>
	</g>
	<g>
		<polygon class="st2" points="538.8,219.5 545.7,208.1 550.7,220.5 		"/>
	</g>
	<g>
		<polygon class="st2" points="550.8,220.5 557.8,209 562.8,221.5 		"/>
	</g>
	<g>
		<polygon class="st2" points="562.9,221.5 569.8,210 574.9,222.4 		"/>
	</g>
	<g>
		<polygon class="st2" points="574.9,222.4 581.8,210.9 586.9,223.3 		"/>
	</g>
	<g>
		<polygon class="st2" points="587,223.3 593.9,211.8 599,224.2 		"/>
	</g>
	<g>
		<polygon class="st2" points="599.1,224.2 605.9,212.7 611,225.1 		"/>
	</g>
	<g>
		<polygon class="st2" points="611.1,225.1 618,213.6 623.1,226 		"/>
	</g>
	<g>
		<polygon class="st2" points="623.2,226 630,214.5 635.1,226.9 		"/>
	</g>
	<g>
		<path class="st2" d="M635.2,226.9l6.8-11.5l0.6,1.5c0.3,0.5,0.5,1.1,0.8,1.6c0.5,1.1,0.9,2.1,1.1,3.2c0.3,1.1,0.5,2.1,0.6,3.2
			c0.1,1.1,0.1,2.2,0.1,3.2c-0.3-0.1-0.6-0.2-0.9-0.3c-0.3-0.1-0.6-0.1-1-0.2c-0.3-0.1-0.6-0.1-1-0.1l-0.5-0.1l-0.7-0.1L635.2,226.9
			z"/>
	</g>
</g>
</svg>
