<?xml version="1.0" encoding="utf-8"?>
<!-- Generator: Adobe Illustrator 23.0.3, SVG Export Plug-In . SVG Version: 6.00 Build 0)  -->
<svg version="1.1" id="Layer_1" xmlns="http://www.w3.org/2000/svg" xmlns:xlink="http://www.w3.org/1999/xlink" x="0px" y="0px"
	 viewBox="0 0 640 256" style="enable-background:new 0 0 640 256;" xml:space="preserve">
<style type="text/css">
	.st0{fill:none;stroke:#006837;stroke-width:6;stroke-miterlimit:10;}
	.st1{fill:#006837;}
</style>
<path class="st0" d="M296.9,98"/>
<path class="st0" d="M296.2,61"/>
<path class="st1" d="M641.3,256.3c-0.4,0-0.8,0-1.3,0c-5.8-0.4-142.3-10.1-188.9-15.9c-4.9-0.6-10.5-1.3-16.6-2
	c-39.6-4.7-93.9-11.2-123.2-21.8c-23.9-8.7-68.5-31.4-86.6-49.9c-14.9-15.3-35.8-50.1-42.2-70.3c-4.7-14.8-6.6-38.3-6.8-40.9
	c-0.7-9.6,6.5-18,16.1-18.8c9.7-0.7,18,6.5,18.8,16.1c0.5,6,2.3,23.8,5.2,33.1c4.7,15,22.7,45,33.8,56.3
	c12.1,12.4,50.5,33.2,73.4,41.5c25.5,9.3,79.7,15.7,115.5,20c6.2,0.7,11.8,1.4,16.8,2c45.7,5.7,185.7,15.6,187.1,15.7
	c9.6,0.7,16.9,9.1,16.2,18.7C658.1,249.3,650.4,256.3,641.3,256.3z"/>
<path class="st0" d="M194.1,75.8"/>
<path class="st0" d="M192.7,1.7"/>
</svg>
