<?xml version="1.0" encoding="utf-8"?>
<!-- Generator: Adobe Illustrator 23.0.2, SVG Export Plug-In . SVG Version: 6.00 Build 0)  -->
<svg version="1.1"
	 id="svg8" xmlns:cc="http://creativecommons.org/ns#" xmlns:dc="http://purl.org/dc/elements/1.1/" xmlns:inkscape="http://www.inkscape.org/namespaces/inkscape" xmlns:rdf="http://www.w3.org/1999/02/22-rdf-syntax-ns#" xmlns:sodipodi="http://sodipodi.sourceforge.net/DTD/sodipodi-0.dtd" xmlns:svg="http://www.w3.org/2000/svg"
	 xmlns="http://www.w3.org/2000/svg" xmlns:xlink="http://www.w3.org/1999/xlink" x="0px" y="0px" viewBox="0 0 64 64"
	 style="enable-background:new 0 0 64 64;" xml:space="preserve">
<style type="text/css">
	.st0{fill:#C87137;}
</style>
<g id="layer1" transform="translate(0.10583381,-280.06665)" inkscape:groupmode="layer" inkscape:label="Layer 1">
	<g>
		<g id="rect817_7_">
			<polygon class="st0" points="70.8,346.2 68.4,344.5 67.4,347.5 66.5,344.5 65.5,347.5 64.6,344.5 63.6,347.5 62.7,344.5 
				61.7,347.5 62.3,345.8 59.3,338.5 62.3,330.9 59.3,323.4 62.3,315.9 59.3,308.3 62.3,300.8 59.3,293.2 62.3,285.7 59.3,277.9 
				61.7,279.6 62.7,276.6 63.6,279.6 64.6,276.6 65.5,279.6 66.5,276.6 67.4,279.6 68.4,276.6 67.8,278.3 70.8,285.6 67.8,293.2 
				70.8,300.7 67.8,308.3 70.8,315.8 67.8,323.4 70.8,330.9 67.8,338.6 			"/>
		</g>
	</g>
</g>
</svg>
