<?xml version="1.0" encoding="utf-8"?>
<!-- Generator: Adobe Illustrator 23.0.2, SVG Export Plug-In . SVG Version: 6.00 Build 0)  -->
<svg version="1.1"
	 id="svg8" xmlns:cc="http://creativecommons.org/ns#" xmlns:dc="http://purl.org/dc/elements/1.1/" xmlns:inkscape="http://www.inkscape.org/namespaces/inkscape" xmlns:rdf="http://www.w3.org/1999/02/22-rdf-syntax-ns#" xmlns:sodipodi="http://sodipodi.sourceforge.net/DTD/sodipodi-0.dtd" xmlns:svg="http://www.w3.org/2000/svg"
	 xmlns="http://www.w3.org/2000/svg" xmlns:xlink="http://www.w3.org/1999/xlink" x="0px" y="0px" viewBox="0 0 64 64"
	 style="enable-background:new 0 0 64 64;" xml:space="preserve">
<style type="text/css">
	.st0{fill:#C87137;}
</style>
<g id="layer1" transform="translate(0.10583381,-280.06665)" inkscape:groupmode="layer" inkscape:label="Layer 1">
	<g>
		<g id="rect817_7_">
			<polygon class="st0" points="66,339 64.3,341.4 67.3,342.4 64.3,343.3 67.3,344.3 64.3,345.2 67.3,346.2 64.3,347.1 67.3,348.1 
				65.6,347.5 58.3,350.5 50.7,347.5 43.2,350.5 35.7,347.5 28.1,350.5 20.6,347.5 13,350.5 5.5,347.5 -2.3,350.5 -0.6,348.1 
				-3.6,347.1 -0.6,346.2 -3.6,345.2 -0.6,344.3 -3.6,343.3 -0.6,342.4 -3.6,341.4 -1.9,342 5.4,339 13,342 20.5,339 28.1,342 
				35.6,339 43.2,342 50.7,339 58.4,342 			"/>
		</g>
	</g>
</g>
</svg>
