<?xml version="1.0" encoding="utf-8"?>
<!-- Generator: Adobe Illustrator 23.0.2, SVG Export Plug-In . SVG Version: 6.00 Build 0)  -->
<svg version="1.1"
	 id="svg8" xmlns:cc="http://creativecommons.org/ns#" xmlns:dc="http://purl.org/dc/elements/1.1/" xmlns:inkscape="http://www.inkscape.org/namespaces/inkscape" xmlns:rdf="http://www.w3.org/1999/02/22-rdf-syntax-ns#" xmlns:sodipodi="http://sodipodi.sourceforge.net/DTD/sodipodi-0.dtd" xmlns:svg="http://www.w3.org/2000/svg"
	 xmlns="http://www.w3.org/2000/svg" xmlns:xlink="http://www.w3.org/1999/xlink" x="0px" y="0px" viewBox="0 0 64 64"
	 style="enable-background:new 0 0 64 64;" xml:space="preserve">
<style type="text/css">
	.st0{fill:#C87137;}
</style>
<sodipodi:namedview  bordercolor="#666666" borderopacity="1.0" fit-margin-bottom="0" fit-margin-left="0" fit-margin-right="0" fit-margin-top="0" id="base" inkscape:current-layer="layer1" inkscape:cx="25.640062" inkscape:cy="41.248743" inkscape:document-units="px" inkscape:lockguides="false" inkscape:pagecheckerboard="true" inkscape:pageopacity="0.0" inkscape:pageshadow="2" inkscape:window-height="1035" inkscape:window-maximized="1" inkscape:window-width="1920" inkscape:window-x="0" inkscape:window-y="1" inkscape:zoom="5.6" pagecolor="#ffffff" showgrid="true" units="px">
	
		<inkscape:grid  id="grid815" originx="0.10583381" originy="-8.6873608e-06" spacingx="4.2333334" spacingy="4.2333334" type="xygrid">
		</inkscape:grid>
</sodipodi:namedview>
<g id="layer1" transform="translate(0.10583381,-280.06665)" inkscape:groupmode="layer" inkscape:label="Layer 1">
	<g>
		<g id="rect817_7_">
			<polygon class="st0" points="-7.7,277.9 -5.3,279.6 -4.3,276.6 -3.4,279.6 -2.4,276.6 -1.5,279.6 -0.5,276.6 0.4,279.6 
				1.4,276.6 0.8,278.3 3.8,285.6 0.8,293.2 3.8,300.7 0.8,308.3 3.8,315.8 0.8,323.4 3.8,330.9 0.8,338.5 3.8,346.2 1.4,344.5 
				0.4,347.5 -0.5,344.5 -1.5,347.5 -2.4,344.5 -3.4,347.5 -4.3,344.5 -5.3,347.5 -4.7,345.8 -7.7,338.5 -4.7,330.9 -7.7,323.4 
				-4.7,315.9 -7.7,308.3 -4.7,300.8 -7.7,293.2 -4.7,285.5 			"/>
		</g>
	</g>
</g>
</svg>
